<svg width="100" height="100" viewBox="0 0 100 100" fill="none" xmlns="http://www.w3.org/2000/svg">
<path d="M83.333 25.0002H70.833V16.6668C70.833 12.071 67.0955 8.3335 62.4997 8.3335H37.4997C32.9038 8.3335 29.1663 12.071 29.1663 16.6668V25.0002H16.6663C12.0705 25.0002 8.33301 28.7377 8.33301 33.3335V75.0002C8.33301 79.596 12.0705 83.3335 16.6663 83.3335H83.333C87.9288 83.3335 91.6664 79.596 91.6664 75.0002V33.3335C91.6664 28.7377 87.9288 25.0002 83.333 25.0002ZM37.4997 16.6668H62.4997V25.0002H37.4997V16.6668ZM16.6663 75.0002V33.3335H83.333L83.3372 75.0002H16.6663Z" fill="#455560"/>
<path d="M54.1663 37.5H45.833V50H33.333V58.3333H45.833V70.8333H54.1663V58.3333H66.6663V50H54.1663V37.5Z" fill="#455560"/>
</svg>
