<svg width="100" height="100" viewBox="0 0 100 100" fill="none" xmlns="http://www.w3.org/2000/svg">
<path d="M49.9997 41.6667C54.7955 41.6667 58.333 38.1333 58.333 33.3333C58.333 28.5333 54.7955 25 49.9997 25C45.208 25 41.6663 28.5333 41.6663 33.3333C41.6663 38.1333 45.208 41.6667 49.9997 41.6667ZM49.9997 45.8333C40.7955 45.8333 33.333 52.55 33.333 60.8333V62.4417H66.6663V60.8333C66.6663 52.55 59.2038 45.8333 49.9997 45.8333Z" fill="#455560"/>
<path d="M79.1667 8.3335H20.8333C16.2375 8.3335 12.5 12.071 12.5 16.6668V70.8335C12.5 75.4293 16.2375 79.1668 20.8333 79.1668H37.5L50 91.6668L62.5 79.1668H79.1667C83.7625 79.1668 87.5 75.4293 87.5 70.8335V16.6668C87.5 12.071 83.7625 8.3335 79.1667 8.3335ZM58.3333 70.8335L50 79.1668L41.6667 70.8335H20.8333V16.6668H79.1667L79.175 70.8335H58.3333Z" fill="#455560"/>
</svg>
