<svg width="100" height="100" viewBox="0 0 100 100" fill="none" xmlns="http://www.w3.org/2000/svg">
<path d="M52.9456 9.55419C52.559 9.16692 52.0998 8.85968 51.5943 8.65005C51.0888 8.44042 50.547 8.33252 49.9998 8.33252C49.4525 8.33252 48.9107 8.44042 48.4052 8.65005C47.8997 8.85968 47.4405 9.16692 47.0539 9.55419L9.55393 47.0542C8.97139 47.6369 8.5747 48.3793 8.414 49.1874C8.2533 49.9955 8.33581 50.8332 8.65111 51.5944C8.9664 52.3557 9.50031 53.0063 10.1854 53.4642C10.8704 53.922 11.6758 54.1665 12.4998 54.1667H16.6664V83.3334C16.6664 87.9292 20.4039 91.6667 24.9998 91.6667H74.9998C79.5956 91.6667 83.3331 87.9292 83.3331 83.3334V54.1667H87.4998C88.3246 54.1685 89.1314 53.9252 89.8177 53.4677C90.5041 53.0102 91.039 52.3591 91.3547 51.597C91.6703 50.8349 91.7524 49.9963 91.5905 49.1874C91.4287 48.3786 91.0302 47.6361 90.4456 47.0542L52.9456 9.55419ZM75.0039 83.3334H24.9998V43.3917L49.9998 18.3917L74.9998 43.3917V62.5L75.0039 83.3334Z" fill="#455560"/>
<path d="M54.1663 41.6665H45.833V54.1665H33.333V62.4998H45.833V74.9998H54.1663V62.4998H66.6663V54.1665H54.1663V41.6665Z" fill="#455560"/>
</svg>
